<svg width="106" height="97" viewBox="0 0 106 97" fill="none" xmlns="http://www.w3.org/2000/svg">
<path d="M14.2804 36.1628H9.25146L42.0992 1.90735e-05H47.1287L14.2804 36.1628Z" fill="url(#paint0_linear_0_1845)"/>
<path d="M31.921 36.1628H20.4547L53.303 1.90735e-05H64.7684L31.921 36.1628Z" fill="url(#paint1_linear_0_1845)"/>
<path d="M50.9358 27.5446H55.8844V22.596H50.9358V27.5446Z" fill="url(#paint2_linear_0_1845)"/>
<path d="M59.1603 27.5446H64.1098V22.596H59.1603V27.5446Z" fill="url(#paint3_linear_0_1845)"/>
<path d="M50.9358 35.3323H55.8844V30.3828H50.9358V35.3323Z" fill="url(#paint4_linear_0_1845)"/>
<path d="M59.1603 35.3323H64.1098V30.3828H59.1603V35.3323Z" fill="url(#paint5_linear_0_1845)"/>
<path d="M101.762 47.6292C101.762 47.6292 101.363 47.5098 100.616 47.3123C99.8701 47.1074 98.765 46.8566 97.365 46.5562C94.5604 45.9646 90.5433 45.2729 85.7177 44.8375C83.3063 44.617 80.6928 44.4609 77.9333 44.4011C75.1746 44.3368 72.2699 44.38 69.2743 44.527C67.7778 44.6032 66.2575 44.7181 64.7206 44.8402C63.9526 44.9165 63.1828 44.9936 62.4075 45.0708C61.6331 45.1618 60.8559 45.2536 60.0751 45.3455C59.2943 45.43 58.5153 45.5641 57.7308 45.6707C56.9463 45.7754 56.1654 45.915 55.38 46.0409C53.8073 46.2779 52.2401 46.5994 50.6739 46.9053L48.3295 47.4041C47.5468 47.5612 46.7761 47.7716 45.9999 47.9516L44.8396 48.2309C44.4318 48.3283 44.0239 48.4247 43.617 48.5212C43.2201 48.6131 42.8242 48.7049 42.4292 48.7968C42.0277 48.8877 41.5996 48.9704 41.1872 49.0567C40.772 49.1422 40.3577 49.2267 39.9443 49.3112C39.5318 49.3847 39.1221 49.4573 38.7142 49.5298C38.3054 49.6015 37.8976 49.6704 37.4897 49.7319C37.0809 49.788 36.6721 49.844 36.2642 49.9001C34.6364 50.1242 33.016 50.2868 31.4157 50.3787C28.2152 50.5752 25.0928 50.4742 22.1587 50.1435C19.2237 49.8045 16.4807 49.1826 14.0288 48.3926C12.808 47.9783 11.6514 47.5484 10.5821 47.067C9.51709 46.5801 8.52129 46.0923 7.62425 45.5669C5.8186 44.5362 4.36238 43.4641 3.23743 42.5115C2.10596 41.5653 1.31584 40.723 0.782948 40.1534C0.51673 39.8705 0.325473 39.638 0.195579 39.4837C0.0659601 39.3303 0 39.2504 0 39.2504C0 39.2504 0.348067 39.481 1.00434 39.8888C1.65564 40.3022 2.63748 40.8663 3.90307 41.5084C5.17161 42.1432 6.73723 42.8422 8.58165 43.4605C10.4186 44.0925 12.5361 44.6335 14.8657 45.0267C16.0342 45.2077 17.2486 45.3887 18.5182 45.475C19.1502 45.5356 19.7978 45.5641 20.4501 45.6055C21.1078 45.6266 21.771 45.6523 22.4462 45.6505C25.147 45.6633 27.9957 45.4879 30.927 45.1039C32.3922 44.8926 33.8804 44.685 35.3805 44.3892C35.7544 44.3166 36.1301 44.2441 36.5068 44.1724C36.8825 44.0906 37.26 44.0089 37.6385 43.9262C38.0161 43.8472 38.3946 43.7664 38.7739 43.6864C39.1469 43.5973 39.518 43.5082 39.8919 43.4182C40.2695 43.3273 40.6342 43.2455 41.0218 43.1454C41.4132 43.0406 41.8054 42.9359 42.2004 42.8312L43.3496 42.5308L44.5686 42.2221C46.1919 41.7931 47.839 41.4303 49.4888 41.0757C51.1479 40.7689 52.806 40.4492 54.4706 40.2159L55.7171 40.0303C56.1323 39.9724 56.5503 39.9338 56.9646 39.8842C57.7978 39.7979 58.6246 39.684 59.4532 39.6206C60.2818 39.5535 61.1049 39.4745 61.9261 39.4203C62.7502 39.3817 63.5687 39.345 64.3826 39.3073C66.0113 39.2568 67.6189 39.2274 69.2008 39.2761C72.3645 39.3377 75.4153 39.5866 78.2832 39.9651C81.154 40.3454 83.841 40.8662 86.2873 41.4643C88.7336 42.066 90.9401 42.743 92.8619 43.4311C94.7837 44.1182 96.4207 44.8099 97.7426 45.4337C99.0663 46.0492 100.067 46.6159 100.745 46.9999C101.421 47.3904 101.762 47.6292 101.762 47.6292Z" fill="url(#paint6_linear_0_1845)"/>
<path d="M10.5592 73.8291C6.6251 73.8291 4.1264 71.5537 4.1264 68.1405V58.0926H7.33749V67.8535C7.33749 69.8418 8.49647 71.1071 10.5592 71.1071C12.622 71.1071 13.7703 69.8418 13.7703 67.8535V58.0926H16.9814V68.1405C16.9814 71.543 14.5146 73.8291 10.5592 73.8291ZM21.7874 77.5612C21.4259 77.5612 21.0325 77.5506 20.671 77.5293V75.1901C20.8836 75.2113 21.192 75.222 21.4791 75.222C22.5849 75.222 23.2229 74.7967 23.4461 73.8822L23.5525 73.4357L19.4376 61.729H22.8507L25.3069 70.5967H25.5195L27.9757 61.729H31.2506L27.2633 73.425C26.2213 76.5192 24.6795 77.5612 21.7874 77.5612ZM44.818 73.8291C41.1497 73.8291 38.8318 72.0747 38.651 69.3527L38.6404 69.1826H41.7345L41.7451 69.2889C41.8621 70.4372 43.1061 71.2134 44.9031 71.2134C46.615 71.2134 47.7952 70.3947 47.7952 69.2145V69.2038C47.7952 68.1937 47.0403 67.6302 45.137 67.2368L43.5208 66.9071C40.331 66.2585 38.9594 64.77 38.9594 62.4414V62.4308C38.9594 59.5812 41.4049 57.6992 44.8074 57.6992C48.3906 57.6992 50.4959 59.5918 50.6979 62.1543L50.7086 62.2925H47.6889L47.6676 62.1649C47.4868 61.0698 46.4236 60.3042 44.8074 60.3042C43.2231 60.3148 42.1705 61.0379 42.1705 62.1862V62.1968C42.1705 63.1963 42.9147 63.7917 44.7223 64.1639L46.3491 64.4935C49.5921 65.1634 51.0063 66.4606 51.0063 68.8529V68.8636C51.0063 71.9046 48.6458 73.8291 44.818 73.8291ZM56.7586 73.6164C54.5257 73.6164 52.9414 72.2342 52.9414 70.1076V70.0863C52.9414 67.9811 54.5683 66.7477 57.4816 66.5775L60.31 66.4074V65.4398C60.31 64.4297 59.6188 63.8555 58.3429 63.8555C57.2264 63.8555 56.5141 64.249 56.2695 64.9401L56.2482 64.9826H53.3774L53.388 64.8869C53.6326 62.8348 55.5677 61.4738 58.513 61.4738C61.6178 61.4738 63.3722 62.9411 63.3722 65.4398V73.4357H60.31V71.8833H60.1186C59.5231 72.9678 58.2897 73.6164 56.7586 73.6164ZM55.9718 69.9162C55.9718 70.8094 56.7267 71.3516 57.8006 71.3516C59.236 71.3516 60.31 70.4053 60.31 69.1719V68.3107L57.9495 68.4595C56.6204 68.5446 55.9718 69.0443 55.9718 69.895V69.9162ZM69.1564 73.4357L65.0841 61.729H68.4121L70.8364 70.5329H71.0278L73.4308 61.729H76.6951L72.644 73.4357H69.1564ZM82.4793 73.6164C79.5553 73.6164 77.7264 71.3304 77.7264 67.5876V67.5664C77.7264 63.8024 79.5127 61.5376 82.4793 61.5376C84.0848 61.5376 85.3927 62.3244 85.9775 63.6004H86.1689V57.2526H89.2736V73.4357H86.1689V71.6175H85.9775C85.3714 72.8828 84.1274 73.6164 82.4793 73.6164ZM83.5319 71.0433C85.18 71.0433 86.2008 69.7461 86.2008 67.5983V67.577C86.2008 65.4292 85.1694 64.1107 83.5319 64.1107C81.8945 64.1107 80.8844 65.4292 80.8844 67.5664V67.5876C80.8844 69.7461 81.8945 71.0433 83.5319 71.0433ZM97.6841 73.6802C94.0796 73.6802 91.9105 71.3942 91.9105 67.5876V67.5664C91.9105 63.7917 94.1115 61.4738 97.6841 61.4738C101.257 61.4738 103.458 63.7811 103.458 67.5664V67.5876C103.458 71.4048 101.289 73.6802 97.6841 73.6802ZM97.6841 71.2453C99.3322 71.2453 100.279 69.895 100.279 67.5876V67.5664C100.279 65.2803 99.3216 63.9087 97.6841 63.9087C96.0361 63.9087 95.0897 65.2803 95.0897 67.5664V67.5876C95.0897 69.895 96.0254 71.2453 97.6841 71.2453Z" fill="url(#paint7_linear_0_1845)"/>
<path opacity="0.5" d="M34.0997 94.6098C32.3982 94.6098 31.3439 93.4294 31.3439 91.5243V91.5162C31.3439 89.6111 32.3942 88.4347 34.0997 88.4347C35.4919 88.4347 36.534 89.3221 36.648 90.5636V90.6125H35.4512V90.584C35.325 89.9246 34.7999 89.4768 34.0997 89.4768C33.1757 89.4768 32.6018 90.2543 32.6018 91.5162V91.5243C32.6018 92.7862 33.1757 93.5678 34.1038 93.5678C34.808 93.5678 35.3169 93.1566 35.4471 92.5298L35.4553 92.4972H36.652L36.648 92.542C36.5218 93.7713 35.5163 94.6098 34.0997 94.6098ZM40.3522 94.6098C38.6059 94.6098 37.5231 93.4212 37.5231 91.5243V91.5162C37.5231 89.6152 38.6222 88.4347 40.3522 88.4347C42.0822 88.4347 43.1772 89.6193 43.1772 91.5162V91.5243C43.1772 93.4212 42.0863 94.6098 40.3522 94.6098ZM40.3522 93.5678C41.3088 93.5678 41.9235 92.7658 41.9235 91.5243V91.5162C41.9235 90.2706 41.3048 89.4768 40.3522 89.4768C39.3956 89.4768 38.7769 90.2706 38.7769 91.5162V91.5243C38.7769 92.7658 39.3834 93.5678 40.3522 93.5678ZM44.3455 94.4592V88.5853H45.7539L47.3781 92.8839H47.4514L49.0715 88.5853H50.4799V94.4592H49.3849V90.4619H49.3035L47.7974 94.4592H47.028L45.5219 90.4619H45.4405V94.4592H44.3455ZM51.9087 94.4592V88.5853H54.3307C55.5682 88.5853 56.3946 89.3832 56.3946 90.5921V90.6003C56.3946 91.8093 55.5682 92.6071 54.3307 92.6071H53.1381V94.4592H51.9087ZM54.0295 89.5582H53.1381V91.6464H54.0295C54.7337 91.6464 55.1489 91.2719 55.1489 90.6043V90.5962C55.1489 89.9286 54.7337 89.5582 54.0295 89.5582ZM56.6998 94.4592L58.7392 88.5853H60.1843L62.2278 94.4592H60.9333L60.4977 93.0345H58.4258L57.9902 94.4592H56.6998ZM59.4272 89.7577L58.7067 92.1145H60.2169L59.5004 89.7577H59.4272ZM63.2251 94.4592V88.5853H64.2509L66.9619 92.3262H67.027V88.5853H68.2034V94.4592H67.1858L64.4666 90.702H64.4015V94.4592H63.2251ZM71.2564 94.4592V92.2652L69.2129 88.5853H70.544L71.8385 91.0562H71.9118L73.2022 88.5853H74.5333L72.4857 92.2652V94.4592H71.2564Z" fill="white"/>
<line opacity="0.5" x1="0.0585938" y1="83.5712" x2="105.647" y2="83.5712" stroke="url(#paint8_linear_0_1845)" stroke-width="0.821057"/>
<defs>
<linearGradient id="paint0_linear_0_1845" x1="9.25146" y1="36.1628" x2="51.9056" y2="13.0026" gradientUnits="userSpaceOnUse">
<stop stop-color="#0AA3A1"/>
<stop offset="1" stop-color="#B4C29E"/>
</linearGradient>
<linearGradient id="paint1_linear_0_1845" x1="20.4547" y1="36.1628" x2="66.4919" y2="6.918" gradientUnits="userSpaceOnUse">
<stop stop-color="#0AA3A1"/>
<stop offset="1" stop-color="#B4C29E"/>
</linearGradient>
<linearGradient id="paint2_linear_0_1845" x1="50.9358" y1="27.5446" x2="56.6231" y2="24.5964" gradientUnits="userSpaceOnUse">
<stop stop-color="#0AA3A1"/>
<stop offset="1" stop-color="#B4C29E"/>
</linearGradient>
<linearGradient id="paint3_linear_0_1845" x1="59.1603" y1="27.5446" x2="64.8482" y2="24.5955" gradientUnits="userSpaceOnUse">
<stop stop-color="#0AA3A1"/>
<stop offset="1" stop-color="#B4C29E"/>
</linearGradient>
<linearGradient id="paint4_linear_0_1845" x1="50.9358" y1="35.3323" x2="56.6236" y2="32.3844" gradientUnits="userSpaceOnUse">
<stop stop-color="#0AA3A1"/>
<stop offset="1" stop-color="#B4C29E"/>
</linearGradient>
<linearGradient id="paint5_linear_0_1845" x1="59.1603" y1="35.3323" x2="64.8487" y2="32.3835" gradientUnits="userSpaceOnUse">
<stop stop-color="#0AA3A1"/>
<stop offset="1" stop-color="#B4C29E"/>
</linearGradient>
<linearGradient id="paint6_linear_0_1845" x1="0" y1="50.4786" x2="6.4308" y2="20.2652" gradientUnits="userSpaceOnUse">
<stop stop-color="#0AA3A1"/>
<stop offset="1" stop-color="#B4C29E"/>
</linearGradient>
<linearGradient id="paint7_linear_0_1845" x1="2.20959" y1="50.4357" x2="39.1506" y2="114.82" gradientUnits="userSpaceOnUse">
<stop stop-color="#0AA3A1"/>
<stop offset="1" stop-color="#B4C29E"/>
</linearGradient>
<linearGradient id="paint8_linear_0_1845" x1="0.0585937" y1="84.4817" x2="105.647" y2="84.4817" gradientUnits="userSpaceOnUse">
<stop stop-color="white" stop-opacity="0"/>
<stop offset="0.5" stop-color="white"/>
<stop offset="1" stop-color="white" stop-opacity="0"/>
</linearGradient>
</defs>
</svg>
